<?xml version="1.0" encoding="utf-8"?>
<svg id="Capa_1" enable-background="new 0 0 512 512" height="512" viewBox="0 0 512 512" width="512" xmlns="http://www.w3.org/2000/svg">
  <g>
    <path d="m413.708 0h-315.416c-20.678 0-37.5 16.822-37.5 37.5v25.5c0 4.143 3.358 7.5 7.5 7.5s7.5-3.357 7.5-7.5v-25.5c0-12.406 10.093-22.5 22.5-22.5h315.416c12.407 0 22.5 10.094 22.5 22.5v437c0 12.406-10.093 22.5-22.5 22.5h-315.416c-12.407 0-22.5-10.094-22.5-22.5v-376.5c0-4.143-3.358-7.5-7.5-7.5s-7.5 3.357-7.5 7.5v376.5c0 20.678 16.822 37.5 37.5 37.5h315.416c20.678 0 37.5-16.822 37.5-37.5v-437c0-20.678-16.822-37.5-37.5-37.5z" style="fill: rgb(255, 255, 255);"/>
    <path d="m403.708 355.5c4.142 0 7.5-3.357 7.5-7.5v-300.5c0-4.143-3.358-7.5-7.5-7.5h-295.416c-4.142 0-7.5 3.357-7.5 7.5v363c0 4.143 3.358 7.5 7.5 7.5h295.416c4.142 0 7.5-3.357 7.5-7.5v-27.5c0-4.143-3.358-7.5-7.5-7.5s-7.5 3.357-7.5 7.5v20h-280.416v-348h280.416v293c0 4.143 3.358 7.5 7.5 7.5z" style="fill: rgb(255, 255, 255);"/>
    <path d="m228.5 457.5c0 15.163 12.336 27.5 27.5 27.5s27.5-12.337 27.5-27.5-12.336-27.5-27.5-27.5-27.5 12.337-27.5 27.5zm40 0c0 6.893-5.607 12.5-12.5 12.5s-12.5-5.607-12.5-12.5 5.607-12.5 12.5-12.5 12.5 5.607 12.5 12.5z" style="fill: rgb(255, 255, 255);"/>
    <path d="m321.25 450.5c-4.142 0-7.5 3.357-7.5 7.5s3.358 7.5 7.5 7.5h49c4.142 0 7.5-3.357 7.5-7.5s-3.358-7.5-7.5-7.5z" style="fill: rgb(255, 255, 255);"/>
    <path d="m141.75 451c-4.142 0-7.5 3.357-7.5 7.5s3.358 7.5 7.5 7.5h49c4.142 0 7.5-3.357 7.5-7.5s-3.358-7.5-7.5-7.5z" style="fill: rgb(255, 255, 255);"/>
    <path d="m349.5 102.5v-10c0-9.649-7.851-17.5-17.5-17.5h-152c-9.649 0-17.5 7.851-17.5 17.5v10c0 9.649 7.851 17.5 17.5 17.5h76.5c4.142 0 7.5-3.357 7.5-7.5s-3.358-7.5-7.5-7.5h-76.5c-1.378 0-2.5-1.121-2.5-2.5v-10c0-1.379 1.122-2.5 2.5-2.5h152c1.378 0 2.5 1.121 2.5 2.5v10c0 1.379-1.122 2.5-2.5 2.5h-39c-4.142 0-7.5 3.357-7.5 7.5s3.358 7.5 7.5 7.5h39c9.649 0 17.5-7.851 17.5-17.5z" style="fill: rgb(255, 255, 255);"/>
    <path d="m207.5 140c-4.142 0-7.5 3.357-7.5 7.5s3.358 7.5 7.5 7.5h96c4.142 0 7.5-3.357 7.5-7.5s-3.358-7.5-7.5-7.5z" style="fill: rgb(255, 255, 255);"/>
    <path d="m136 182.5c0 4.143 3.358 7.5 7.5 7.5h76c4.142 0 7.5-3.357 7.5-7.5s-3.358-7.5-7.5-7.5h-76c-4.142 0-7.5 3.357-7.5 7.5z" style="fill: rgb(255, 255, 255);"/>
    <path d="m143.5 217.571h56c4.142 0 7.5-3.357 7.5-7.5s-3.358-7.5-7.5-7.5h-56c-4.142 0-7.5 3.357-7.5 7.5s3.358 7.5 7.5 7.5z" style="fill: rgb(255, 255, 255);"/>
    <path d="m368.5 230.143h-205c-4.142 0-7.5 3.357-7.5 7.5s3.358 7.5 7.5 7.5h205c4.142 0 7.5-3.357 7.5-7.5s-3.358-7.5-7.5-7.5z" style="fill: rgb(255, 255, 255);"/>
    <path d="m143.5 272.714h92.5c4.142 0 7.5-3.357 7.5-7.5s-3.358-7.5-7.5-7.5h-92.5c-4.142 0-7.5 3.357-7.5 7.5s3.358 7.5 7.5 7.5z" style="fill: rgb(255, 255, 255);"/>
    <path d="m368.5 257.714h-96.5c-4.142 0-7.5 3.357-7.5 7.5s3.358 7.5 7.5 7.5h96.5c4.142 0 7.5-3.357 7.5-7.5s-3.358-7.5-7.5-7.5z" style="fill: rgb(255, 255, 255);"/>
    <path d="m143.5 300.286h113c4.142 0 7.5-3.357 7.5-7.5s-3.358-7.5-7.5-7.5h-113c-4.142 0-7.5 3.357-7.5 7.5s3.358 7.5 7.5 7.5z" style="fill: rgb(255, 255, 255);"/>
    <path d="m368.5 312.857h-205c-4.142 0-7.5 3.357-7.5 7.5s3.358 7.5 7.5 7.5h205c4.142 0 7.5-3.357 7.5-7.5s-3.358-7.5-7.5-7.5z" style="fill: rgb(255, 255, 255);"/>
    <path d="m143.5 355.429h43c4.142 0 7.5-3.357 7.5-7.5s-3.358-7.5-7.5-7.5h-43c-4.142 0-7.5 3.357-7.5 7.5s3.358 7.5 7.5 7.5z" style="fill: rgb(255, 255, 255);"/>
    <path d="m376 347.929c0-4.143-3.358-7.5-7.5-7.5h-146.5c-4.142 0-7.5 3.357-7.5 7.5s3.358 7.5 7.5 7.5h146.5c4.142 0 7.5-3.358 7.5-7.5z" style="fill: rgb(255, 255, 255);"/>
    <path d="m143.5 383h160c4.142 0 7.5-3.357 7.5-7.5s-3.358-7.5-7.5-7.5h-160c-4.142 0-7.5 3.357-7.5 7.5s3.358 7.5 7.5 7.5z" style="fill: rgb(255, 255, 255);"/>
  </g>
</svg>