<?xml version="1.0" encoding="utf-8"?>
<svg id="line_icons" height="512" viewBox="0 0 74 74" width="512" data-name="line icons" xmlns="http://www.w3.org/2000/svg">
  <path d="m37.008 72c-.231 0-.461 0-.693-.012-10-.355-18.128-8.981-18.128-19.228v-19.66a16.084 16.084 0 0 1 16.066-16.069h5.494a16.084 16.084 0 0 1 16.066 16.069v20.09a18.814 18.814 0 0 1 -18.805 18.81zm-2.755-52.969a14.082 14.082 0 0 0 -14.066 14.069v19.66c0 9.183 7.267 16.912 16.2 17.229a16.814 16.814 0 0 0 17.427-16.8v-20.089a14.082 14.082 0 0 0 -14.067-14.069z" style="fill: rgb(255, 255, 255);"/>
  <path d="m37 32.552a2.964 2.964 0 0 1 -2.96-2.961v-4.991a2.96 2.96 0 0 1 5.92 0v4.988a2.964 2.964 0 0 1 -2.96 2.964zm0-8.909a.96.96 0 0 0 -.96.96v4.988a.96.96 0 1 0 1.92 0v-4.991a.96.96 0 0 0 -.96-.957z" style="fill: rgb(255, 255, 255);"/>
  <path d="m54.813 37.541h-35.626a1 1 0 1 1 0-2h35.626a1 1 0 0 1 0 2z" style="fill: rgb(255, 255, 255);"/>
  <path d="m37 37.543a1 1 0 0 1 -1-1v-4.988a1 1 0 0 1 2 0v4.988a1 1 0 0 1 -1 1z" style="fill: rgb(255, 255, 255);"/>
  <path d="m37 23.64a1 1 0 0 1 -1-1v-6.064a1.75 1.75 0 0 0 -1.748-1.747h-10.667a3.748 3.748 0 0 1 0-7.5h20.123a1.749 1.749 0 0 0 1.747-1.747v-2.582a1 1 0 0 1 2 0v2.586a3.751 3.751 0 0 1 -3.747 3.747h-20.123a1.748 1.748 0 0 0 0 3.5h10.667a3.752 3.752 0 0 1 3.748 3.743v6.064a1 1 0 0 1 -1 1z" style="fill: rgb(255, 255, 255);"/>
</svg>