<?xml version="1.0" encoding="utf-8"?>
<svg id="Capa_1" enable-background="new 0 0 512 512" height="512" viewBox="0 0 512 512" width="512" xmlns="http://www.w3.org/2000/svg">
  <g>
    <path d="m397.3 489.5c0 4.136-3.364 7.5-7.5 7.5h-267.6c-4.136 0-7.5-3.364-7.5-7.5v-407h-15v407c0 12.406 10.094 22.5 22.5 22.5h267.6c12.406 0 22.5-10.094 22.5-22.5v-45h-15z" style="fill: rgb(255, 255, 255);"/>
    <path d="m389.8 0h-267.6c-12.406 0-22.5 10.094-22.5 22.5v45h15v-45c0-4.136 3.364-7.5 7.5-7.5h267.6c4.136 0 7.5 3.364 7.5 7.5v407h15v-407c0-12.406-10.093-22.5-22.5-22.5z" style="fill: rgb(255, 255, 255);"/>
    <path d="m197.2 30h-45c-12.406 0-22.5 10.094-22.5 22.5v45c0 12.407 10.094 22.5 22.5 22.5h45c12.406 0 22.5-10.093 22.5-22.5v-15h-15v15c0 4.136-3.364 7.5-7.5 7.5h-45c-4.136 0-7.5-3.364-7.5-7.5v-45c0-4.136 3.364-7.5 7.5-7.5h45c4.135 0 7.5 3.364 7.5 7.5v15h15v-15c-.001-12.406-10.094-22.5-22.5-22.5z" style="fill: rgb(255, 255, 255);"/>
    <path d="m350.98 226.465-35.803-49.925h-118.354l-35.803 49.925 94.98 113.161 43.669-52.028-11.489-9.643-32.18 38.339-69.405-82.69h25.979v-15h-27.458l19.408-27.064h43.976v27.064h-20.926v15h20.926v56.857h15v-56.857h15v-15h-15v-27.064h43.976l24.527 34.203-34.181 40.723 11.49 9.644z" style="fill: rgb(255, 255, 255);"/>
    <path d="m293.5 218.604h15v15h-15z" style="fill: rgb(255, 255, 255);"/>
    <path d="m228.5 387.96c0 15.163 12.336 27.5 27.5 27.5s27.5-12.336 27.5-27.5-12.336-27.5-27.5-27.5-27.5 12.336-27.5 27.5zm40 0c0 6.892-5.607 12.5-12.5 12.5s-12.5-5.607-12.5-12.5 5.607-12.5 12.5-12.5 12.5 5.607 12.5 12.5z" style="fill: rgb(255, 255, 255);"/>
    <path d="m129.699 467h15v15h-15z" style="fill: rgb(255, 255, 255);"/>
    <path d="m367.301 30h15v15h-15z" style="fill: rgb(255, 255, 255);"/>
    <path d="m129.699 407h15v45h-15z" style="fill: rgb(255, 255, 255);"/>
    <path d="m367.301 60h15v45h-15z" style="fill: rgb(255, 255, 255);"/>
  </g>
</svg>