<svg width="512" height="512" xmlns="http://www.w3.org/2000/svg">

 <g>
  <title>background</title>
  <rect fill="none" id="canvas_background" height="602" width="802" y="-1" x="-1"/>
 </g>
 <g>
  <title>Layer 1</title>
  <path fill="#ffffff" id="svg_1" d="m192.23828,334c-4.42187,0 -8.03906,-3.57422 -8.03906,-8s3.53516,-8 7.95312,-8l0.08594,0c4.41797,0 8,3.57422 8,8s-3.58203,8 -8,8zm0,0"/>
  <path fill="#ffffff" id="svg_2" d="m232.23828,334c-4.42187,0 -8.03906,-3.57422 -8.03906,-8s3.53516,-8 7.95312,-8l0.08594,0c4.41797,0 8,3.57422 8,8s-3.58203,8 -8,8zm0,0"/>
  <path fill="#ffffff" id="svg_3" d="m152.23828,334c-4.42187,0 -8.03906,-3.57422 -8.03906,-8s3.53516,-8 7.95312,-8l0.08594,0c4.41797,0 8,3.57422 8,8s-3.58203,8 -8,8zm0,0"/>
  <path fill="#ffffff" id="svg_4" d="m472,382l-432,0c-22.16016,0 -40,-26.25781 -40,-48l0,-120c0,-22.05469 17.94531,-40 40,-40c4.42578,0 8,3.57422 8,8s-3.57422,8 -8,8c-13.23047,0 -24,10.76953 -24,24l0,120c0,13.96875 11.64063,32 24,32l432,0c13.23047,0 24,-10.76953 24,-24l0,-128c0,-13.23047 -10.76953,-24 -24,-24c-4.42578,0 -8,-3.57422 -8,-8s3.57422,-8 8,-8c22.05469,0 40,17.94531 40,40l0,128c0,22.05469 -17.94531,40 -40,40zm0,0"/>
  <path fill="#ffffff" id="svg_5" d="m192,302c-48.51953,0 -88,-39.48047 -88,-88s39.48047,-88 88,-88s88,39.48047 88,88s-39.48047,88 -88,88zm0,-160c-39.70312,0 -72,32.29688 -72,72s32.29688,72 72,72s72,-32.29687 72,-72s-32.29687,-72 -72,-72zm0,0"/>
  <path fill="#ffffff" id="svg_6" d="m192,270c-30.87109,0 -56,-25.12891 -56,-56s25.12891,-56 56,-56s56,25.12891 56,56s-25.12891,56 -56,56zm0,-96c-22.05469,0 -40,17.94531 -40,40s17.94531,40 40,40s40,-17.94531 40,-40s-17.94531,-40 -40,-40zm0,0"/>
  <path fill="#ffffff" id="svg_7" d="m60,270c-11.03125,0 -20,-8.96875 -20,-20s8.96875,-20 20,-20s20,8.96875 20,20s-8.96875,20 -20,20zm0,-24c-2.19922,0 -4,1.80078 -4,4s1.80078,4 4,4s4,-1.80078 4,-4s-1.80078,-4 -4,-4zm0,0"/>
  <path fill="#ffffff" id="svg_8" d="m60,334c-11.03125,0 -20,-8.96875 -20,-20s8.96875,-20 20,-20s20,8.96875 20,20s-8.96875,20 -20,20zm0,-24c-2.19922,0 -4,1.80078 -4,4s1.80078,4 4,4s4,-1.80078 4,-4s-1.80078,-4 -4,-4zm0,0"/>
  <path fill="#ffffff" id="svg_9" d="m312,214c-4.42578,0 -8,-3.57422 -8,-8l0,-24c0,-4.42578 3.57422,-8 8,-8s8,3.57422 8,8l0,24c0,4.42578 -3.57422,8 -8,8zm0,0"/>
  <path fill="#ffffff" id="svg_10" d="m472,214l-160,0c-4.42578,0 -8,-3.57422 -8,-8s3.57422,-8 8,-8l160,0c4.42578,0 8,3.57422 8,8s-3.57422,8 -8,8zm0,0"/>
  <path fill="#ffffff" id="svg_11" d="m472,214c-4.42578,0 -8,-3.57422 -8,-8l0,-24c0,-4.42578 3.57422,-8 8,-8s8,3.57422 8,8l0,24c0,4.42578 -3.57422,8 -8,8zm0,0"/>
  <path fill="#ffffff" id="svg_12" d="m504,270l-192,0c-4.42578,0 -8,-3.57422 -8,-8s3.57422,-8 8,-8l192,0c4.42578,0 8,3.57422 8,8s-3.57422,8 -8,8zm0,0"/>
  <path fill="#ffffff" id="svg_13" d="m504,302l-192,0c-4.42578,0 -8,-3.57422 -8,-8s3.57422,-8 8,-8l192,0c4.42578,0 8,3.57422 8,8s-3.57422,8 -8,8zm0,0"/>
  <path fill="#ffffff" id="svg_14" d="m504,334l-192,0c-4.42578,0 -8,-3.57422 -8,-8s3.57422,-8 8,-8l192,0c4.42578,0 8,3.57422 8,8s-3.57422,8 -8,8zm0,0"/>
  <path fill="#ffffff" id="svg_15" d="m64,406c-4.42578,0 -8,-3.57422 -8,-8l0,-24c0,-4.42578 3.57422,-8 8,-8s8,3.57422 8,8l0,24c0,4.42578 -3.57422,8 -8,8zm0,0"/>
  <path fill="#ffffff" id="svg_16" d="m152.00781,406l-88.00781,0c-4.42578,0 -8,-3.57422 -8,-8s3.57422,-8 8,-8l88.00781,0c4.42578,0 8,3.57422 8,8s-3.57422,8 -8,8zm0,0"/>
  <path fill="#ffffff" id="svg_17" d="m152.00781,406c-4.42187,0 -8,-3.57422 -8,-8l0,-24c0,-4.42578 3.57813,-8 8,-8c4.42578,0 8,3.57422 8,8l0,24c0,4.42578 -3.57422,8 -8,8zm0,0"/>
  <path fill="#ffffff" id="svg_18" d="m360,406c-4.42578,0 -8,-3.57422 -8,-8l0,-24c0,-4.42578 3.57422,-8 8,-8s8,3.57422 8,8l0,24c0,4.42578 -3.57422,8 -8,8zm0,0"/>
  <path fill="#ffffff" id="svg_19" d="m448.00781,406l-88.00781,0c-4.42578,0 -8,-3.57422 -8,-8s3.57422,-8 8,-8l88.00781,0c4.42578,0 8,3.57422 8,8s-3.57422,8 -8,8zm0,0"/>
  <path fill="#ffffff" id="svg_20" d="m448.00781,406c-4.42187,0 -8,-3.57422 -8,-8l0,-24c0,-4.42578 3.57813,-8 8,-8c4.42578,0 8,3.57422 8,8l0,24c0,4.42578 -3.57422,8 -8,8zm0,0"/>
  <path fill="#ffffff" id="svg_21" d="m118.66406,190l-78.66406,0c-4.42578,0 -8,-3.57422 -8,-8s3.57422,-8 8,-8l78.66406,0c4.42578,0 8,3.57422 8,8s-3.57422,8 -8,8zm0,0"/>
  <path fill="#ffffff" id="svg_22" d="m472,190l-206.65625,0c-4.42187,0 -8,-3.57422 -8,-8s3.57813,-8 8,-8l206.65625,0c4.42578,0 8,3.57422 8,8s-3.57422,8 -8,8zm0,0"/>
  <path fill="#ffffff" id="svg_23" d="m192,102c-4.42578,0 -8,-3.57422 -8,-8l0,-40c0,-4.42578 3.57422,-8 8,-8s8,3.57422 8,8l0,40c0,4.42578 -3.57422,8 -8,8zm0,0"/>
  <path fill="#ffffff" id="svg_24" d="m132.00781,118.07813c-2.76953,0 -5.45703,-1.42969 -6.9375,-4l-20,-34.63672c-2.20703,-3.83203 -0.89453,-8.72266 2.92969,-10.92969c3.81641,-2.20703 8.71094,-0.90234 10.92969,2.92969l20,34.63672c2.20703,3.83203 0.89453,8.72265 -2.92969,10.92968c-1.25781,0.72657 -2.63281,1.07032 -3.99219,1.07032zm0,0"/>
  <path fill="#ffffff" id="svg_25" d="m88.07031,162c-1.35937,0 -2.73437,-0.34375 -3.99218,-1.07031l-34.63672,-20c-3.83203,-2.21094 -5.14453,-7.09766 -2.9375,-10.92969c2.20703,-3.83203 7.11328,-5.14453 10.92968,-2.92969l34.63672,20c3.83203,2.21094 5.14453,7.10547 2.92969,10.92969c-1.48047,2.56641 -4.16797,4 -6.92969,4zm0,0"/>
  <path fill="#ffffff" id="svg_26" d="m295.92969,162c-2.76953,0 -5.45703,-1.43359 -6.9375,-4c-2.20703,-3.83203 -0.89453,-8.71875 2.92969,-10.92969l34.62109,-20c3.8164,-2.20703 8.71484,-0.90234 10.92969,2.92969c2.20703,3.83203 0.89453,8.71875 -2.92969,10.92969l-34.62109,20c-1.25782,0.72656 -2.63282,1.07031 -3.99219,1.07031zm0,0"/>
  <path fill="#ffffff" id="svg_27" d="m251.99219,118.07813c-1.35938,0 -2.73438,-0.34375 -3.99219,-1.07032c-3.83203,-2.20703 -5.14453,-7.10547 -2.92969,-10.92968l19.98438,-34.62891c2.21094,-3.82422 7.11328,-5.14453 10.92969,-2.92969c3.83203,2.20703 5.14453,7.10547 2.92578,10.92969l-19.98047,34.62891c-1.48047,2.5625 -4.16797,4 -6.9375,4zm0,0"/>
 </g>
</svg>