<svg width="480" height="480" xmlns="http://www.w3.org/2000/svg">

 <g>
  <title>background</title>
  <rect fill="none" id="canvas_background" height="402" width="582" y="-1" x="-1"/>
 </g>
 <g>
  <title fill="#ffffff">Layer 1</title>
  <path fill="#ffffff" id="svg_3" d="m360,0l-240,0c-22.08,0.026 -39.974,17.92 -40,40l0,368c0.024,19.001 13.389,35.373 32,39.2l0,32.8l48,0l0,-32l160,0l0,32l48,0l0,-32.8c18.611,-3.827 31.976,-20.199 32,-39.2l0,-368c-0.026,-22.08 -17.92,-39.974 -40,-40zm-216,464l-16,0l0,-16l16,0l0,16zm208,0l-16,0l0,-16l16,0l0,16zm32,-56c0,13.255 -10.745,24 -24,24l-240,0c-13.255,0 -24,-10.745 -24,-24l0,-368c0,-13.255 10.745,-24 24,-24l240,0c13.255,0 24,10.745 24,24l0,368z"/>
  <path fill="#ffffff" id="svg_6" d="m240,160c-70.692,0 -128,57.308 -128,128c0.084,70.658 57.342,127.916 128,128c70.692,0 128,-57.308 128,-128s-57.308,-128 -128,-128zm0,240c-61.856,0 -112,-50.144 -112,-112c0.066,-61.828 50.172,-111.934 112,-112c61.856,0 112,50.144 112,112s-50.144,112 -112,112z"/>
  <path fill="#ffffff" id="svg_9" d="m240,192c-53.019,0 -96,42.981 -96,96c0.057,52.996 43.004,95.943 96,96c53.019,0 96,-42.981 96,-96s-42.981,-96 -96,-96zm0,176c-44.183,0 -80,-35.817 -80,-80c0.049,-44.163 35.837,-79.952 80,-80c44.183,0 80,35.817 80,80c0,44.183 -35.817,80 -80,80z"/>
  <path fill="#ffffff" id="svg_12" d="m240,32c-30.928,0 -56,25.072 -56,56c0.035,30.913 25.087,55.965 56,56c30.928,0 56,-25.072 56,-56c0,-30.928 -25.072,-56 -56,-56zm0,96c-22.091,0 -40,-17.909 -40,-40c0.026,-22.08 17.92,-39.974 40,-40c22.091,0 40,17.909 40,40s-17.909,40 -40,40z"/>
  <path fill="#ffffff" id="svg_15" d="m240,64c-13.255,0 -24,10.745 -24,24s10.745,24 24,24s24,-10.745 24,-24s-10.745,-24 -24,-24zm0,32c-4.418,0 -8,-3.582 -8,-8s3.582,-8 8,-8s8,3.582 8,8s-3.582,8 -8,8z"/>
  <rect fill="#ffffff" id="svg_18" height="16" width="16" y="32" x="112"/>
  <rect fill="#ffffff" id="svg_21" height="16" width="16" y="32" x="352"/>
  <rect fill="#ffffff" id="svg_24" height="16" width="16" y="400" x="112"/>
  <rect fill="#ffffff" id="svg_27" height="16" width="16" y="400" x="352"/>
  <path fill="#ffffff" id="svg_30" d="m240,248c-22.091,0 -40,17.909 -40,40c0.026,22.08 17.92,39.974 40,40c22.091,0 40,-17.909 40,-40c0,-22.091 -17.909,-40 -40,-40zm0,64c-13.255,0 -24,-10.745 -24,-24s10.745,-24 24,-24s24,10.745 24,24s-10.745,24 -24,24z"/>
  <path fill="#ffffff" id="svg_33" d="m48,280l-32,0c-4.418,0 -8,3.582 -8,8s3.582,8 8,8l32,0c4.418,0 8,-3.582 8,-8s-3.582,-8 -8,-8z"/>
  <path fill="#ffffff" id="svg_36" d="m53.656,226.344l-24,-24c-3.178,-3.069 -8.243,-2.981 -11.312,0.197c-2.994,3.1 -2.994,8.015 0,11.115l24,24c3.178,3.069 8.243,2.981 11.312,-0.197c2.994,-3.1 2.994,-8.015 0,-11.115z"/>
  <path fill="#ffffff" id="svg_39" d="m53.46,338.344c-3.1,-2.995 -8.016,-2.995 -11.116,0l-24,24c-3.178,3.07 -3.266,8.134 -0.196,11.312s8.134,3.266 11.312,0.196c0.067,-0.064 0.132,-0.13 0.196,-0.196l24,-24c3.07,-3.178 2.982,-8.242 -0.196,-11.312z"/>
  <path fill="#ffffff" id="svg_42" d="m464,280l-32,0c-4.418,0 -8,3.582 -8,8s3.582,8 8,8l32,0c4.418,0 8,-3.582 8,-8s-3.582,-8 -8,-8z"/>
  <path fill="#ffffff" id="svg_45" d="m461.46,202.344c-3.1,-2.994 -8.015,-2.994 -11.116,0l-24,24c-3.124,3.125 -3.123,8.19 0.002,11.314c1.5,1.499 3.534,2.342 5.654,2.342c2.122,0 4.156,-0.844 5.656,-2.344l24,-24c3.07,-3.178 2.982,-8.242 -0.196,-11.312z"/>
  <path fill="#ffffff" id="svg_48" d="m461.656,362.344l-24,-24c-3.178,-3.07 -8.242,-2.982 -11.312,0.196c-2.995,3.1 -2.995,8.016 0,11.116l24,24c3.178,3.07 8.242,2.982 11.312,-0.196c2.995,-3.1 2.995,-8.016 0,-11.116z"/>
 </g>
</svg>