<?xml version="1.0" encoding="utf-8"?>
<svg width="16" height="16" class="bi bi-person-square" viewBox="-7.835 -14.412 38.358 34.99" xmlns="http://www.w3.org/2000/svg">
  <g>
    <title>background</title>
  </g>
  <path fill-rule="evenodd" d="M 2.684 -5.132 C 2.684 -5.394 2.769 -5.533 3.031 -5.533 L 5.256 -5.588 C 5.473 -5.588 5.772 -5.44 5.825 -5.229 L 6.538 -3.691 L 17.115 -3.691 C 17.412 -3.691 17.636 -3.421 17.581 -3.129 L 16.158 4.461 C 16.116 4.685 15.92 4.848 15.692 4.848 L 7.154 4.848 C 6.925 4.848 6.729 4.685 6.688 4.461 L 5.266 -3.115 L 4.886 -4.639 L 2.94 -4.603 C 2.678 -4.603 2.684 -4.87 2.684 -5.132 Z M 8.102 4.848 C 6.641 4.848 5.729 6.429 6.459 7.694 C 6.798 8.282 7.424 8.643 8.102 8.643 C 9.563 8.643 10.476 7.061 9.746 5.797 C 9.407 5.209 8.78 4.848 8.102 4.848 Z M 14.744 4.848 C 13.282 4.848 12.37 6.429 13.1 7.694 C 13.439 8.282 14.065 8.643 14.744 8.643 C 16.205 8.643 17.117 7.061 16.387 5.797 C 16.048 5.209 15.421 4.848 14.744 4.848 Z M 8.102 5.797 C 7.372 5.797 6.915 6.587 7.281 7.22 C 7.451 7.513 7.764 7.694 8.102 7.694 C 8.833 7.694 9.289 6.903 8.924 6.271 C 8.754 5.977 8.441 5.797 8.102 5.797 Z M 14.744 5.797 C 14.013 5.797 13.557 6.587 13.922 7.22 C 14.092 7.513 14.405 7.694 14.744 7.694 C 15.474 7.694 15.93 6.903 15.565 6.271 C 15.395 5.977 15.082 5.797 14.744 5.797 Z" style="stroke-linecap: square; stroke-width: 0px; paint-order: stroke; stroke: rgb(255, 96, 96); fill: rgb(255, 255, 255);"/>
</svg>