<?xml version="1.0" encoding="utf-8"?>
<!-- Generator: Adobe Illustrator 22.1.0, SVG Export Plug-In . SVG Version: 6.00 Build 0)  -->
<svg version="1.1" id="Слой_1" xmlns="http://www.w3.org/2000/svg" xmlns:xlink="http://www.w3.org/1999/xlink" x="0px" y="0px"
	 width="75px" height="24px" viewBox="0 0 75 24" style="enable-background:new 0 0 75 24;" xml:space="preserve">
<style type="text/css">
	.st0{clip-path:url(#SVGID_2_);}
	.st1{fill:#F79E1B;}
	.st2{fill:#FF1631;}
</style>
<g>
	<defs>
		<rect id="SVGID_1_" width="74.1" height="23.1"/>
	</defs>
	<clipPath id="SVGID_2_">
		<use xlink:href="#SVGID_1_"  style="overflow:visible;"/>
	</clipPath>
	<g class="st0">
		<path class="st1" d="M27.1,20c0,0.3,0,0.5-0.1,0.8c-0.2,0.4-0.4,0.7-0.8,0.8c-0.4,0.1-0.8,0.1-1.2,0c-0.2-0.1-0.4-0.2-0.5-0.3
			c-0.2-0.2-0.3-0.4-0.4-0.5C24,20.6,24,20.3,24,20v-3.6h-1.4v3.7c0,0.4,0.1,0.9,0.3,1.3c0.2,0.4,0.4,0.6,0.6,0.9
			c0.3,0.3,0.6,0.4,1,0.5c0.7,0.2,1.5,0.2,2.2,0c0.4-0.1,0.7-0.3,1-0.5c0.3-0.3,0.5-0.5,0.6-0.9c0.2-0.4,0.3-0.9,0.3-1.3v-3.7h-1.4
			V20z M33.6,16.3c-0.4,0-0.7,0.1-1.1,0.2c-0.4,0.2-0.6,0.4-0.8,0.7v-0.7h-1.4v6.4h1.4v-3.5c0-0.3,0-0.4,0.1-0.7
			c0.1-0.2,0.2-0.4,0.3-0.5c0.2-0.2,0.3-0.3,0.4-0.4c0.2-0.1,0.4-0.1,0.6-0.1c0.2,0,0.4,0,0.5,0.1c0.2,0,0.4,0.1,0.5,0.2l0.4-1.3
			c-0.2-0.1-0.4-0.1-0.5-0.2C34,16.3,33.8,16.3,33.6,16.3z M36.5,19.1c0-0.2,0.1-0.4,0.2-0.6c0.1-0.2,0.2-0.4,0.4-0.5
			c0.2-0.2,0.4-0.3,0.5-0.4c0.2-0.1,0.4-0.1,0.6-0.1c0.4,0,0.8,0.1,1.1,0.4c0.3,0.4,0.4,0.7,0.5,1.2H36.5z M40.4,17.2
			c-0.3-0.3-0.6-0.5-1-0.7c-0.4-0.2-0.8-0.3-1.2-0.3c-0.4,0-0.9,0.1-1.2,0.3c-0.4,0.2-0.7,0.4-1,0.7c-0.3,0.3-0.5,0.6-0.6,1.1
			c-0.2,0.4-0.3,0.9-0.3,1.3s0.1,0.9,0.3,1.3c0.3,0.8,0.9,1.4,1.7,1.7c0.4,0.2,0.9,0.3,1.3,0.3c0.4,0,1-0.1,1.4-0.2
			c0.4-0.2,0.9-0.4,1.2-0.7l-0.7-1c-0.3,0.2-0.5,0.4-0.9,0.5c-0.3,0.1-0.6,0.2-1,0.2c-0.2,0-0.4,0-0.6-0.1c-0.2-0.1-0.4-0.2-0.5-0.3
			c-0.2-0.2-0.4-0.4-0.4-0.5c-0.1-0.3-0.2-0.4-0.3-0.7h4.8v-0.5c0-0.4-0.1-0.9-0.3-1.3C41,17.9,40.7,17.5,40.4,17.2z M6.6,18.2
			c-0.3-0.2-0.6-0.4-1-0.4c-0.4-0.1-0.7-0.2-1.1-0.3l-0.6-0.1c-0.3,0-0.5-0.1-0.8-0.2c-0.2-0.1-0.4-0.1-0.6-0.3
			c-0.2-0.1-0.3-0.2-0.4-0.4C2,16.4,2,16.2,2,16c0-0.2,0.1-0.4,0.2-0.5c0.1-0.2,0.3-0.4,0.4-0.4c0.2-0.1,0.4-0.3,0.6-0.3
			c0.3-0.1,0.5-0.1,0.9-0.1c0.4,0,0.9,0.1,1.3,0.2c0.4,0.2,0.9,0.4,1.2,0.6l0.7-1.2c-0.4-0.3-1-0.5-1.5-0.7
			c-0.6-0.2-1.2-0.3-1.9-0.3c-0.4,0-1,0.1-1.4,0.2c-0.4,0.1-0.8,0.3-1.2,0.5c-0.4,0.3-0.6,0.5-0.8,0.9c-0.2,0.4-0.3,0.8-0.3,1.3
			c0,0.4,0.1,0.8,0.3,1.1c0.1,0.4,0.3,0.6,0.5,0.8c0.3,0.2,0.5,0.4,0.9,0.4c0.4,0.2,0.7,0.3,1.1,0.3l0.7,0.1
			c0.5,0.1,1.1,0.2,1.6,0.4c0.4,0.2,0.5,0.4,0.5,0.8c0,0.2-0.1,0.4-0.2,0.6c-0.1,0.2-0.3,0.4-0.4,0.4c-0.2,0.1-0.4,0.2-0.7,0.3
			c-0.3,0.1-0.5,0.1-0.9,0.1c-0.3,0-0.5,0-0.8-0.1c-0.5-0.1-1.1-0.3-1.5-0.5c-0.2-0.1-0.4-0.3-0.5-0.4L0,21.7
			c0.3,0.2,0.5,0.4,0.8,0.5c0.3,0.2,0.6,0.3,0.9,0.4c0.4,0.1,0.7,0.2,1.1,0.3C3.1,23,3.4,23,3.7,23c0.4,0,1-0.1,1.4-0.2
			c0.4-0.1,0.8-0.3,1.2-0.5c0.4-0.3,0.6-0.5,0.8-0.9c0.2-0.4,0.3-0.8,0.3-1.3c0-0.4-0.1-0.7-0.3-1.1C7,18.6,6.8,18.4,6.6,18.2z
			 M9.9,19.1c0-0.2,0.1-0.4,0.2-0.6c0.1-0.2,0.2-0.4,0.4-0.5c0.2-0.2,0.4-0.3,0.5-0.4s0.4-0.1,0.6-0.1c0.4,0,0.8,0.2,1.1,0.4
			c0.3,0.4,0.4,0.7,0.5,1.2H9.9z M13.8,17.2c-0.3-0.3-0.6-0.5-1-0.7c-0.4-0.2-0.8-0.3-1.2-0.3s-0.9,0.1-1.2,0.3
			c-0.4,0.2-0.7,0.4-1,0.7c-0.3,0.3-0.5,0.6-0.6,1.1c-0.2,0.4-0.3,0.9-0.3,1.3s0.1,0.9,0.3,1.3c0.3,0.8,0.9,1.4,1.7,1.7
			c0.4,0.2,0.9,0.3,1.3,0.3c0.4,0,1-0.1,1.4-0.2c0.4-0.2,0.9-0.4,1.2-0.7l-0.7-1c-0.3,0.2-0.5,0.4-0.9,0.5c-0.3,0.1-0.6,0.2-1,0.2
			c-0.2,0-0.4,0-0.6-0.1c-0.2-0.1-0.4-0.2-0.5-0.3c-0.2-0.2-0.4-0.4-0.4-0.5c-0.1-0.3-0.2-0.4-0.3-0.7h4.7v-0.5
			c0-0.4-0.1-0.9-0.3-1.3C14.3,17.9,14.1,17.5,13.8,17.2z M19.9,21.5c-0.5,0.3-1.1,0.3-1.6,0.1c-0.3-0.1-0.4-0.3-0.6-0.4
			c-0.2-0.2-0.3-0.4-0.4-0.6c-0.2-0.5-0.2-1.2,0-1.7c0.1-0.3,0.3-0.4,0.4-0.6c0.2-0.2,0.4-0.4,0.6-0.4c0.3-0.1,0.4-0.2,0.7-0.2
			c0.3,0,0.5,0.1,0.8,0.2c0.3,0.1,0.5,0.3,0.7,0.5l0.9-1c-0.3-0.4-0.6-0.6-1-0.7c-0.4-0.2-0.9-0.3-1.3-0.3s-1,0.1-1.4,0.3
			c-0.8,0.4-1.4,1-1.7,1.8c-0.4,0.9-0.4,1.8,0,2.7c0.3,0.8,1,1.4,1.8,1.8c0.4,0.2,0.9,0.3,1.4,0.3c0.4,0,0.9-0.1,1.3-0.3
			c0.4-0.2,0.8-0.4,1.1-0.8l-0.9-1C20.3,21.2,20.1,21.4,19.9,21.5z M65,20.4c-0.1,0.3-0.3,0.4-0.4,0.6c-0.2,0.2-0.4,0.4-0.6,0.4
			c-0.5,0.2-1.1,0.2-1.6,0c-0.4-0.2-0.8-0.6-1-1.1c-0.2-0.5-0.2-1.1,0-1.6c0.2-0.4,0.5-0.9,1-1.1c0.3-0.1,0.5-0.2,0.8-0.2
			c0.3,0,0.5,0.1,0.8,0.2c0.3,0.1,0.4,0.3,0.6,0.4c0.2,0.2,0.3,0.4,0.4,0.6C65.2,19.3,65.2,20,65,20.4z M65.1,17.2
			c-0.4-0.6-1.2-1-2-0.9c-1.3,0-2.5,0.8-2.9,2c-0.4,0.9-0.4,1.8,0,2.7c0.2,0.4,0.4,0.8,0.7,1.1c0.6,0.6,1.4,1,2.2,1
			c0.4,0,0.8-0.1,1.2-0.3c0.4-0.2,0.6-0.4,0.8-0.7v0.8h1.5v-9.6h-1.4V17.2z M69.3,19.1c0-0.2,0.1-0.4,0.2-0.6
			c0.1-0.2,0.2-0.4,0.4-0.5c0.2-0.2,0.4-0.3,0.5-0.4c0.2-0.1,0.4-0.1,0.6-0.1c0.4,0,0.8,0.1,1.1,0.4c0.3,0.4,0.4,0.7,0.5,1.2
			L69.3,19.1L69.3,19.1z M73.3,17.2c-0.3-0.3-0.6-0.5-1-0.7c-0.4-0.2-0.8-0.3-1.2-0.3c-0.4,0-0.8,0.1-1.2,0.3
			c-0.4,0.2-0.7,0.4-1,0.7c-0.3,0.3-0.5,0.6-0.6,1.1c-0.2,0.4-0.3,0.9-0.3,1.3s0.1,0.9,0.3,1.3c0.2,0.4,0.4,0.7,0.7,1.1
			c0.3,0.3,0.6,0.5,1,0.7c0.4,0.2,0.9,0.3,1.3,0.3c0.4,0,1-0.1,1.4-0.2c0.4-0.2,0.9-0.4,1.2-0.7l-0.7-1c-0.3,0.2-0.5,0.4-0.9,0.5
			c-0.3,0.1-0.6,0.2-1,0.2c-0.2,0-0.4,0-0.6-0.1c-0.2-0.1-0.4-0.2-0.5-0.3c-0.2-0.2-0.4-0.4-0.4-0.5c-0.1-0.3-0.2-0.4-0.3-0.7h4.7
			v-0.5c0-0.4-0.1-0.9-0.3-1.3C73.8,17.8,73.5,17.5,73.3,17.2z M57.3,20.4c-0.2,0.4-0.6,0.9-1.1,1.1c-0.5,0.2-1.1,0.2-1.6,0
			c-0.4-0.2-0.9-0.5-1.1-1.1c-0.2-0.5-0.2-1.2,0-1.7c0.1-0.3,0.3-0.4,0.4-0.6c0.2-0.2,0.4-0.4,0.6-0.4c0.3-0.1,0.5-0.2,0.8-0.2
			c0.3,0,0.5,0.1,0.8,0.2c0.3,0.1,0.4,0.3,0.6,0.4c0.2,0.2,0.4,0.4,0.4,0.6C57.6,19.3,57.6,19.9,57.3,20.4z M57.9,17.2
			c-0.4-0.3-0.7-0.5-1.1-0.7c-0.4-0.2-0.9-0.3-1.3-0.3c-0.4,0-1,0.1-1.4,0.3c-0.4,0.2-0.8,0.4-1.1,0.7c-0.3,0.3-0.5,0.6-0.7,1.1
			c-0.4,0.9-0.4,1.8,0,2.7c0.2,0.4,0.4,0.7,0.7,1.1c0.4,0.3,0.7,0.5,1.1,0.7c0.9,0.4,1.9,0.4,2.7,0c0.4-0.2,0.8-0.4,1.1-0.7
			c0.3-0.3,0.5-0.6,0.7-1.1c0.4-0.9,0.4-1.8,0-2.7C58.4,17.9,58.3,17.5,57.9,17.2z M44.9,15.7c0.3-0.3,0.6-0.5,1.1-0.7
			s0.9-0.3,1.3-0.3c0.5,0,1.1,0.1,1.5,0.4c0.4,0.3,0.8,0.5,1.1,1l1.2-0.8c-0.2-0.3-0.4-0.5-0.7-0.8c-0.3-0.3-0.5-0.4-0.9-0.6
			c-0.4-0.2-0.7-0.3-1.1-0.4c-0.4-0.1-0.8-0.1-1.2-0.1c-0.7,0-1.3,0.1-2,0.4c-1.2,0.4-2.1,1.3-2.6,2.6c-0.4,1.3-0.4,2.6,0,3.8
			c0.4,1.2,1.4,2.1,2.6,2.6c1,0.4,2.1,0.4,3.1,0.3c0.4-0.1,0.7-0.2,1.1-0.4c0.4-0.2,0.6-0.4,0.9-0.6c0.3-0.3,0.5-0.5,0.7-0.8
			l-1.2-0.9c-0.6,0.9-1.6,1.3-2.6,1.3c-0.4,0-0.9-0.1-1.3-0.3c-0.4-0.2-0.7-0.4-1.1-0.7c-0.3-0.3-0.5-0.7-0.7-1.1
			c-0.4-0.9-0.4-1.9,0-2.8C44.3,16.4,44.6,16,44.9,15.7z"/>
		<path class="st2" d="M39.5,3.8c-0.3-0.3-0.6-0.5-1-0.7c-0.4-0.2-0.8-0.3-1.2-0.3c-0.4,0-0.9,0.1-1.3,0.3c-0.4,0.2-0.8,0.4-1.1,0.7
			c-0.3,0.4-0.5,0.7-0.7,1.1c-0.2,0.4-0.3,0.9-0.3,1.4c0,0.4,0.1,1,0.3,1.4c0.2,0.4,0.4,0.8,0.7,1.1c0.3,0.3,0.7,0.5,1.1,0.7
			c0.4,0.2,0.9,0.3,1.4,0.3c0.4,0,1-0.1,1.4-0.2c0.4-0.2,0.9-0.4,1.2-0.7l-0.7-1c-0.1,0.1-0.3,0.2-0.4,0.3c-0.2,0.1-0.3,0.2-0.4,0.3
			c-0.4,0.1-0.7,0.2-1,0.2c-0.3,0-0.4,0-0.7-0.1c-0.1,0-0.1-0.1-0.2-0.1c-0.3-0.2-0.7-0.5-0.8-0.9c-0.2-0.2-0.3-0.4-0.3-0.7h4.9V6.4
			c0-0.4-0.1-1-0.3-1.4C40,4.6,39.8,4.1,39.5,3.8z M35.5,5.8c0-0.3,0.1-0.4,0.2-0.6C35.7,5,35.8,4.8,36,4.7c0.2-0.2,0.4-0.3,0.5-0.4
			c0.2-0.1,0.4-0.1,0.7-0.1c0.4,0,0.8,0.2,1.2,0.4c0.3,0.4,0.5,0.7,0.5,1.2H35.5z"/>
		<path class="st2" d="M32,8.3c-0.2,0.1-0.4,0.1-0.7,0.1c-0.2,0-0.3,0-0.4-0.1c0,0-0.1-0.1-0.2-0.1c-0.1,0-0.1,0-0.2-0.1
			c0,0-0.1-0.1-0.1-0.2c0-0.1-0.1-0.1-0.1-0.2c-0.1-0.2-0.1-0.4-0.1-0.5V4.4h2.7V3h-2.6v-2h-1.4v2h-1.3v1.3h1.3v2.9
			c-0.1,0.7,0.2,1.4,0.6,2c0.4,0.4,1.1,0.6,1.8,0.6c0.4,0,0.8-0.1,1.2-0.2s0.6-0.3,0.9-0.4l-0.6-1.2C32.5,8.1,32.3,8.2,32,8.3z"/>
		<path class="st2" d="M48.9,4.8c0.2-0.2,0.4-0.4,0.6-0.4c0.3-0.1,0.5-0.2,0.8-0.2c0.3,0,0.6,0.1,0.9,0.2c0.3,0.1,0.5,0.3,0.7,0.5
			l0.9-1c-0.3-0.4-0.6-0.6-1.1-0.8c-0.4-0.2-0.9-0.3-1.4-0.3c-0.4,0-1,0.1-1.4,0.3c-0.8,0.4-1.5,1-1.8,1.8c-0.4,0.9-0.4,1.9,0,2.8
			c0.4,0.8,1,1.5,1.8,1.8c0.4,0.2,1,0.3,1.4,0.3s1-0.1,1.4-0.3c0.4-0.2,0.8-0.4,1.1-0.8l-0.9-1c-0.2,0.2-0.4,0.4-0.7,0.5
			c-0.3,0.1-0.6,0.2-0.9,0.2c-0.3,0-0.5-0.1-0.8-0.2C49.2,8.1,49,8,48.9,7.8c-0.2-0.2-0.4-0.4-0.4-0.6c-0.2-0.5-0.2-1.2,0-1.7
			c0-0.1,0.1-0.1,0.1-0.2C48.7,5.1,48.7,5,48.9,4.8z"/>
		<path class="st2" d="M8.8,0L5.9,6.9L3.2,0H0.8v9.7h1.6V1.8l2.8,6.9h1.7l2.8-7v8h1.6V0H8.8z"/>
		<path class="st2" d="M17.9,3.8c-0.3-0.3-0.5-0.5-0.9-0.7c-0.4-0.2-0.8-0.3-1.2-0.3c-1.3,0-2.6,0.8-3,2.1c-0.4,0.9-0.4,1.9,0,2.8
			c0.2,0.4,0.4,0.8,0.7,1.1c0.6,0.6,1.5,1,2.3,1c0.4,0,0.8-0.1,1.2-0.3c0.4-0.2,0.6-0.4,0.9-0.7v0.8h1.4V3h-1.4V3.8z M17.9,7.2
			c-0.2,0.5-0.6,0.9-1.1,1.2c-0.5,0.2-1.2,0.2-1.7,0c-0.3-0.1-0.4-0.3-0.6-0.4c-0.2-0.2-0.3-0.4-0.4-0.7c-0.2-0.5-0.2-1.1,0-1.6
			c0.2-0.5,0.5-0.9,1-1.2c0.3-0.1,0.5-0.2,0.8-0.2c0.8,0,1.6,0.4,1.9,1.3C18.1,6.1,18.1,6.6,17.9,7.2z"/>
		<path class="st2" d="M26.2,6.4c-0.5-0.4-1.1-0.5-1.7-0.6c-0.1,0-0.1,0-0.2,0c-0.6,0-1.6-0.1-1.6-0.7c0-1.2,2.7-0.7,3.3-0.1
			l0.7-1.3c-1.5-1.1-5.5-1.2-5.5,1.4c0,0.5,0.2,1,0.5,1.3c0.4,0.4,1.1,0.6,1.7,0.6L24,7c0.3,0,0.6,0.1,0.9,0.3
			c0.2,0.1,0.3,0.3,0.3,0.4c0,0.3-0.2,0.4-0.4,0.6c-0.9,0.4-2.6,0.2-3.3-0.5l-0.6,1.2C21,9,21.1,9.1,21.1,9.1
			c0.2,0.1,0.3,0.2,0.5,0.3c0.4,0.2,1,0.4,1.5,0.4h0.6c0.4,0,0.9-0.1,1.2-0.2c0.3-0.1,0.5-0.2,0.7-0.3c0.1,0,0.2-0.1,0.3-0.1
			c0.3-0.2,0.4-0.4,0.6-0.6c0.2-0.3,0.2-0.5,0.2-0.9C26.8,7.2,26.5,6.6,26.2,6.4z"/>
		<path class="st2" d="M43.5,3.8V3H42v6.6h1.4V6c0-0.3,0-0.5,0.1-0.7c0.5-1,1.6-1.2,2.6-0.7l0.4-1.4C45.6,2.7,44,2.7,43.5,3.8z"/>
		<path class="st2" d="M59,3.8c-0.3-0.3-0.5-0.5-0.9-0.7c-0.4-0.2-0.8-0.3-1.2-0.3c-1.3,0-2.6,0.8-3,2.1c-0.4,0.9-0.4,1.9,0,2.8
			c0.2,0.4,0.4,0.8,0.7,1.1c0.6,0.6,1.5,1,2.3,1c0.4,0,0.8-0.1,1.2-0.3C58.4,9.3,58.7,9,59,8.8v0.8h1.4V3H59V3.8z M59,7.2
			c-0.2,0.5-0.5,0.9-1.1,1.1c-0.5,0.2-1.2,0.2-1.7,0C56,8.1,55.8,8,55.6,7.8c-0.2-0.2-0.3-0.4-0.4-0.7c-0.2-0.5-0.2-1.1,0-1.6
			c0.2-0.5,0.5-0.9,1-1.2c0.3-0.1,0.5-0.2,0.8-0.2c0.8,0,1.6,0.4,1.9,1.3C59.2,6.1,59.2,6.6,59,7.2z"/>
		<path class="st2" d="M65.4,2.8c-0.4,0-0.8,0.1-1.2,0.2c-0.4,0.2-0.6,0.4-0.8,0.7V3h-1.4v6.6h1.4V6c0-0.3,0-0.5,0.1-0.7
			c0.1-0.2,0.2-0.4,0.4-0.5c0.2-0.2,0.4-0.3,0.5-0.4c0.2-0.1,0.4-0.1,0.6-0.1c0.2,0,0.4,0,0.5,0.1c0.2,0,0.4,0.1,0.5,0.2l0.4-1.4
			c-0.1,0-0.2-0.1-0.3-0.1c-0.1,0-0.2,0-0.3-0.1C65.8,2.8,65.6,2.8,65.4,2.8z"/>
		<path class="st2" d="M70.6,3c0.8-0.1,1.6,0.3,2,0.9V0H74v9.6h-1.5V8.8c-0.2,0.4-0.4,0.5-0.8,0.7c-0.4,0.2-0.7,0.3-1.2,0.3
			c-0.8,0-1.6-0.4-2.2-1c-0.3-0.2-0.5-0.6-0.6-0.9c0-0.1-0.1-0.1-0.1-0.2c-0.4-0.9-0.4-1.8,0-2.7C68.1,3.8,69.3,3,70.6,3z M72.3,7.6
			c0.1-0.1,0.2-0.3,0.2-0.4c0.2-0.4,0.2-1.1,0-1.6c0,0,0-0.1-0.1-0.1c-0.1-0.2-0.2-0.4-0.3-0.5c-0.2-0.2-0.4-0.4-0.6-0.4
			c-0.3-0.1-0.5-0.2-0.8-0.2c-0.3,0-0.5,0.1-0.8,0.2c-0.4,0.2-0.8,0.6-1,1.1c-0.2,0.5-0.2,1.1,0,1.6c0.2,0.4,0.5,0.9,1,1.1
			c0.5,0.2,1.1,0.2,1.6,0C71.8,8.1,72,8,72.2,7.8C72.2,7.7,72.3,7.7,72.3,7.6z"/>
	</g>
</g>
</svg>
