<svg width="16" height="16" xmlns="http://www.w3.org/2000/svg" class="bi bi-cart">

 <g>
  <title>background</title>
  <rect fill="none" id="canvas_background" height="602" width="802" y="-1" x="-1"/>
 </g>
 <g>
  <title>Layer 1</title>
  <path stroke="null" stroke-width="0" id="svg_1" d="m0,0.607a0.52925,0.53079 0 0 1 0.52925,-0.53079l1.58776,0a0.52925,0.53079 0 0 1 0.51338,0.40234l0.4287,1.72083l12.28928,0a0.52925,0.53079 0 0 1 0.51973,0.62846l-1.58776,8.49269a0.52925,0.53079 0 0 1 -0.51973,0.43313l-9.52658,0a0.52925,0.53079 0 0 1 -0.51973,-0.43313l-1.5867,-8.47676l-0.4234,-1.70597l-1.17494,0a0.52925,0.53079 0 0 1 -0.52925,-0.53079zm3.28349,2.65396l1.38982,7.4311l8.64801,0l1.38982,-7.4311l-11.42766,0zm2.00905,8.49269a2.11702,2.12317 0 1 0 0,4.24634a2.11702,2.12317 0 0 0 0,-4.24634zm7.40956,0a2.11702,2.12317 0 1 0 0,4.24634a2.11702,2.12317 0 0 0 0,-4.24634zm-7.40956,1.06159a1.05851,1.06159 0 1 0 0,2.12317a1.05851,1.06159 0 0 0 0,-2.12317zm7.40956,0a1.05851,1.06159 0 1 0 0,2.12317a1.05851,1.06159 0 0 0 0,-2.12317z" fill="#fff" fill-rule="evenodd"/>
  <path d="m9.27021,3.67913c0.04619,0 0.10591,-0.03266 0.13857,0c0.03266,0.03266 0.08857,0.06406 0.13857,0.18476c0.01768,0.04267 0.05465,0.22941 0.09238,0.46189c0.05965,0.36758 0.05262,0.64546 0.09238,0.8776c0.05514,0.32192 0.10117,0.50261 0.18476,0.64665c0.05184,0.08933 0.04619,0.27714 0.09238,0.23095c0.04619,-0.04619 -0.27199,-0.19372 -0.50808,-0.32333c-0.09054,-0.0497 -0.18682,-0.08136 -0.46189,-0.13857c-0.18645,-0.03878 -0.36637,-0.1041 -0.50808,0.04619c-0.48265,0.51187 -0.62336,1.56269 -0.69284,2.49423c-0.04466,0.5988 0.25236,1.14204 0.55427,1.33949c0.25931,0.16959 0.68961,0.27656 1.06236,0.04619c0.50009,-0.30907 0.73799,-0.94918 0.83141,-1.57044c0.08929,-0.59379 -0.23095,-1.10854 -0.55427,-1.43187l-0.23095,-0.13857l-0.09238,-0.13857" id="svg_3" fill-opacity="null" stroke-opacity="null" stroke-width="0" stroke="null" fill="none"/>
 </g>
</svg>