<?xml version="1.0" encoding="utf-8"?>
<!-- Generator: Adobe Illustrator 22.1.0, SVG Export Plug-In . SVG Version: 6.00 Build 0)  -->
<svg version="1.1" id="Слой_1" xmlns="http://www.w3.org/2000/svg" xmlns:xlink="http://www.w3.org/1999/xlink" x="0px" y="0px"
	 width="58px" height="24px" viewBox="0 0 58 24" style="enable-background:new 0 0 58 24;" xml:space="preserve">
<style type="text/css">
	.st0{clip-path:url(#SVGID_2_);}
	.st1{fill:#FFFFFF;}
	.st2{fill:#E89F3E;}
</style>
<g>
	<defs>
		<rect id="SVGID_1_" width="57.1" height="24"/>
	</defs>
	<clipPath id="SVGID_2_">
		<use xlink:href="#SVGID_1_"  style="overflow:visible;"/>
	</clipPath>
	<g class="st0">
		<path class="st1" d="M23.1,12.8l-2.9,7.5l-0.3-1.6c-0.7-1.9-2.2-3.9-4-4.6l2.6,9.7h3.1l4.6-11.1H23.1z M25.5,23.9l1.8-11.1h2.9
			l-1.8,11.1H25.5z M42.9,19.9c0.2-0.6,1.2-3.1,1.2-3.1s0.2-0.6,0.4-1.1l0.2,0.9l0.7,3.2L42.9,19.9L42.9,19.9z M46.5,12.8h-2.2
			c-0.7,0-1.3,0.2-1.5,0.9l-4.3,10.1h3.1c0,0,0.5-1.4,0.6-1.7c0.3,0,3.3,0,3.8,0c0.1,0.4,0.3,1.6,0.3,1.6h2.7
			C48.8,23.9,46.5,12.8,46.5,12.8z M39,13.1c-0.6-0.2-1.5-0.5-2.6-0.5c-2.9,0-4.9,1.5-4.9,3.7c0,1.6,1.5,2.5,2.6,3
			c1.1,0.5,1.5,0.9,1.5,1.4c0,0.7-0.9,1.1-1.7,1.1c-1.2,0-1.8-0.1-2.7-0.6l-0.4-0.1l-0.4,2.4c0.7,0.3,2,0.5,3.3,0.6
			c3.1,0,5.1-1.5,5.1-3.8c0-1.3-0.8-2.2-2.4-3c-1-0.5-1.7-0.9-1.6-1.4c0-0.5,0.6-0.9,1.7-0.9c0.8,0,1.5,0.1,2.2,0.4l0.3,0.1
			C38.6,15.5,39,13.1,39,13.1z"/>
		<path class="st2" d="M17.6,12.8h-4.7V13c3.7,0.9,6.1,3.2,7.1,5.8l-1-5.1C18.7,13,18.2,12.8,17.6,12.8z"/>
		<path class="st1" d="M4,10.2H2.2L0,0.7l2.1-0.3l1.5,7.4l3.8-7.3h2L4,10.2z M54.2,10.4c-0.7,1.3-1.3,1.6-2.3,1.6
			c-0.2,0-0.3,0-0.5-0.1v-1c0.1,0.1,0.3,0.1,0.6,0.1c0.3,0,0.7-0.2,0.9-0.5l0.1-0.3l-1.1-5l1.4-0.2L54,8.5L55.7,5h1.3L54.2,10.4z
			 M49.1,6c-0.4,0-0.8,0.3-1.3,0.7L47.4,9c0.3,0.1,0.4,0.1,0.8,0.1c0.8,0,1.4-0.5,1.6-1.6C50,6.5,49.6,6,49.1,6z M48.1,10.2
			c-0.7,0-1.4-0.1-2.1-0.3l1.1-7.2l1.3-0.2l-0.5,3.1c0.4-0.3,0.9-0.7,1.6-0.7c1.1,0,1.9,0.8,1.6,2.5C50.8,9.3,49.6,10.2,48.1,10.2z
			 M41.9,4.9c-0.4-0.2-0.7-0.3-1.3-0.3c-0.9,0-1.7,0.7-1.9,2.2c-0.2,1.3,0.3,1.9,1,1.9c0.6,0,1.2-0.3,1.7-0.9L41.9,4.9z M41.3,10.1
			V9.2c-0.6,0.5-1.3,1.1-2.3,1.1c-1.5,0-2.4-1-2.1-3.3c0.4-2.5,2-3.7,3.6-3.7c0.6,0,1.2,0.1,1.5,0.3l0.5-3.3L44.4,0l-1.6,10.1H41.3z
			 M33.7,4.3c-0.7,0-1.3,0.5-1.6,1.6h2.7C34.8,4.9,34.4,4.3,33.7,4.3z M36.2,7.1h-4.5c-0.1,1.3,0.5,1.9,1.5,1.9
			c0.9,0,1.7-0.3,2.5-0.8v1.3c-0.8,0.5-1.8,0.8-2.9,0.8c-2,0-3.2-1.1-2.9-3.5c0.3-2.2,1.9-3.5,3.7-3.5c2.1,0,2.8,1.6,2.4,3.5
			C36.3,6.8,36.2,7,36.2,7.1z M28.9,2.2c-0.6,0-1-0.4-0.9-0.9c0.1-0.5,0.6-0.9,1.2-0.9c0.6,0,1,0.4,0.8,0.9
			C30,1.8,29.5,2.2,28.9,2.2z M26.8,10.1l1-6.8h1.7l-1,6.8H26.8z M26.8,1.5c-0.6,0-1,0.3-1,0.9l-0.1,1h1.3v1.4h-1.5l-0.8,5.4h-1.7
			l0.8-5.4h-1l0.2-1.4h1l0.2-1.2c0.2-1.5,1.3-2,2.7-2c0.3,0,0.6,0,0.7,0.1v1.4C27.2,1.5,27,1.5,26.8,1.5z M21.3,2.2
			c-0.6,0-1-0.4-0.9-0.9c0.1-0.5,0.6-0.9,1.2-0.9c0.6,0,1,0.4,0.8,0.9C22.4,1.8,21.9,2.2,21.3,2.2z M19.2,10.1l1-6.8H22l-1,6.8H19.2
			z M16.6,6.2L16,10.1h-1.7l1-6.8h1.5v1.4c0.6-0.8,1.4-1.4,2.4-1.5v1.7C18.2,4.9,17.2,5.5,16.6,6.2z M11.1,4.3
			c-0.7,0-1.3,0.5-1.6,1.6h2.7C12.3,4.9,11.9,4.3,11.1,4.3z M13.7,7.1H9.3c-0.1,1.3,0.5,1.9,1.5,1.9c0.9,0,1.7-0.3,2.5-0.8v1.3
			c-0.8,0.5-1.7,0.8-2.9,0.8c-2,0-3.2-1.1-2.9-3.5c0.3-2.2,1.9-3.5,3.7-3.5c2.1,0,2.8,1.6,2.4,3.5C13.7,6.8,13.7,7,13.7,7.1z"/>
	</g>
</g>
</svg>
